<?xml version="1.0" encoding="UTF-8" standalone="no"?>
<!-- Generator: Adobe Illustrator 16.0.0, SVG Export Plug-In . SVG Version: 6.00 Build 0)  -->

<svg
   xmlns:dc="http://purl.org/dc/elements/1.1/"
   xmlns:cc="http://creativecommons.org/ns#"
   xmlns:rdf="http://www.w3.org/1999/02/22-rdf-syntax-ns#"
   xmlns:svg="http://www.w3.org/2000/svg"
   xmlns="http://www.w3.org/2000/svg"
   xmlns:sodipodi="http://sodipodi.sourceforge.net/DTD/sodipodi-0.dtd"
   xmlns:inkscape="http://www.inkscape.org/namespaces/inkscape"
   version="1.1"
   id="Layer_1"
   x="0px"
   y="0px"
   width="305.539"
   height="168.189"
   viewBox="0 0 305.53899 168.189"
   enable-background="new 0 0 403.2 280.8"
   xml:space="preserve"
   sodipodi:docname="SVG_file.svg"
   inkscape:version="0.92.1 r15371"><metadata
     id="metadata67"><rdf:RDF><cc:Work
         rdf:about=""><dc:format>image/svg+xml</dc:format><dc:type
           rdf:resource="http://purl.org/dc/dcmitype/StillImage" /><dc:title></dc:title></cc:Work></rdf:RDF></metadata><defs
     id="defs65" /><sodipodi:namedview
     pagecolor="#ffffff"
     bordercolor="#666666"
     borderopacity="1"
     objecttolerance="10"
     gridtolerance="10"
     guidetolerance="10"
     inkscape:pageopacity="0"
     inkscape:pageshadow="2"
     inkscape:window-width="811"
     inkscape:window-height="611"
     id="namedview63"
     showgrid="false"
     fit-margin-top="0"
     fit-margin-left="0"
     fit-margin-right="0"
     fit-margin-bottom="0"
     inkscape:zoom="3.0270657"
     inkscape:cx="152.37001"
     inkscape:cy="84.694016"
     inkscape:window-x="2424"
     inkscape:window-y="258"
     inkscape:window-maximized="0"
     inkscape:current-layer="Layer_1" /><g
     id="g60"
     transform="translate(-49.23,-56.905)"><polygon
       points="272.272,168.422 272.272,168.423 271.733,190.022 271.194,211.624 270.655,190.022 270.116,168.423 270.116,168.422 270.655,146.822 271.194,125.221 271.733,146.822 "
       id="polygon10"
       style="clip-rule:evenodd;fill:#1a3369;fill-rule:evenodd" /><path
       d="m 165.696,170.383 c 0,2.955 0,5.386 -0.154,6.679 -0.123,0.893 -0.277,1.569 -0.892,1.692 -0.277,0.063 -0.646,0.123 -0.924,0.123 -0.184,0 -0.246,0.093 -0.246,0.185 0,0.186 0.154,0.247 0.492,0.247 0.923,0 2.862,-0.093 3.016,-0.093 0.154,0 2.093,0.093 3.786,0.093 0.338,0 0.492,-0.093 0.492,-0.247 0,-0.092 -0.062,-0.185 -0.246,-0.185 -0.277,0 -0.954,-0.061 -1.385,-0.123 -0.923,-0.123 -1.107,-0.8 -1.2,-1.692 -0.154,-1.293 -0.154,-3.724 -0.154,-6.679 v -2.616 c 0,-0.215 0.062,-0.276 0.215,-0.276 0.523,0 3.878,0 4.647,0.092 0.954,0.123 1.447,0.678 1.6,1.108 0.124,0.369 0.154,0.8 0.185,1.107 0,0.154 0.062,0.277 0.215,0.277 0.215,0 0.215,-0.308 0.215,-0.585 0,-0.215 0.062,-1.446 0.123,-2.062 0.092,-1.016 0.247,-1.539 0.247,-1.724 0,-0.154 -0.031,-0.246 -0.154,-0.246 -0.123,0 -0.215,0.153 -0.338,0.308 -0.277,0.4 -0.677,0.492 -1.416,0.554 -0.431,0.031 -0.862,0.031 -1.385,0.031 l -3.939,0.03 c -0.185,0 -0.215,-0.092 -0.215,-0.276 v -8.495 c 0,-0.246 0.092,-0.338 0.277,-0.338 l 4.74,0.092 c 1.2,0.031 1.908,0.585 2.093,0.985 0.185,0.399 0.277,0.923 0.277,1.169 0,0.216 0.062,0.369 0.215,0.369 0.153,0 0.215,-0.185 0.246,-0.338 0.062,-0.369 0.123,-1.724 0.154,-2.031 0.092,-0.862 0.247,-1.231 0.247,-1.446 0,-0.154 -0.062,-0.277 -0.185,-0.277 -0.123,0 -0.246,0.123 -0.431,0.185 -0.277,0.093 -0.77,0.093 -1.354,0.123 -0.708,0.03 -6.955,0 -7.571,0 l -1.262,-0.03 c -0.677,-0.031 -1.508,-0.031 -2.216,-0.031 -0.338,0 -0.492,0.062 -0.492,0.246 0,0.123 0.123,0.185 0.246,0.185 0.277,0 0.8,0.031 1.046,0.093 1.016,0.215 1.262,0.708 1.324,1.754 0.062,0.985 0.062,1.847 0.062,6.648 v 5.415 z"
       id="path12"
       inkscape:connector-curvature="0"
       style="clip-rule:evenodd;fill:#1a3369;fill-rule:evenodd" /><path
       d="m 183.916,170.383 c 0,2.955 0,5.386 -0.154,6.679 -0.123,0.893 -0.277,1.569 -0.892,1.692 -0.277,0.063 -0.646,0.123 -0.924,0.123 -0.184,0 -0.246,0.093 -0.246,0.185 0,0.186 0.154,0.247 0.492,0.247 0.462,0 1.169,-0.062 1.785,-0.062 0.646,-0.031 1.169,-0.031 1.231,-0.031 0.462,0 1.2,0.031 2.4,0.093 1.2,0.03 2.893,0.092 5.202,0.092 1.2,0 1.446,0 1.662,-0.8 0.154,-0.646 0.4,-2.739 0.4,-2.985 0,-0.216 0,-0.462 -0.185,-0.462 -0.154,0 -0.215,0.123 -0.277,0.462 -0.215,1.262 -0.584,1.877 -1.385,2.216 -0.801,0.339 -2.155,0.339 -2.955,0.339 -3.017,0 -3.478,-0.4 -3.57,-2.524 -0.031,-0.646 0,-4.216 0,-5.263 v -2.708 c 0,-0.123 0.062,-0.216 0.215,-0.216 0.523,0 3.57,0.062 4.401,0.154 1.2,0.123 1.477,0.646 1.6,1.077 0.123,0.399 0.123,0.708 0.123,1.016 0,0.153 0.062,0.276 0.216,0.276 0.215,0 0.215,-0.338 0.215,-0.584 0,-0.216 0.062,-1.354 0.123,-1.97 0.092,-1.016 0.246,-1.539 0.246,-1.724 0,-0.185 -0.062,-0.246 -0.154,-0.246 -0.123,0 -0.246,0.153 -0.461,0.399 -0.277,0.309 -0.708,0.37 -1.447,0.432 -0.708,0.062 -4.493,0.062 -4.894,0.062 -0.154,0 -0.185,-0.093 -0.185,-0.308 v -8.495 c 0,-0.215 0.062,-0.308 0.185,-0.308 0.339,0 3.693,0.031 4.217,0.093 1.662,0.185 1.97,0.554 2.185,1.046 0.154,0.369 0.185,0.893 0.185,1.108 0,0.246 0.062,0.399 0.246,0.399 0.123,0 0.185,-0.185 0.215,-0.338 0.062,-0.369 0.123,-1.724 0.154,-2.031 0.092,-0.862 0.246,-1.231 0.246,-1.446 0,-0.154 -0.031,-0.277 -0.123,-0.277 -0.154,0 -0.277,0.123 -0.431,0.154 -0.246,0.062 -0.739,0.123 -1.323,0.153 -0.708,0.03 -6.833,0.03 -7.048,0.03 l -1.262,-0.061 c -0.677,-0.031 -1.508,-0.031 -2.216,-0.031 -0.338,0 -0.492,0.062 -0.492,0.246 0,0.123 0.123,0.185 0.246,0.185 0.277,0 0.8,0.031 1.046,0.093 1.016,0.215 1.262,0.708 1.324,1.754 0.062,0.985 0.062,1.847 0.062,6.648 v 5.417 z"
       id="path14"
       inkscape:connector-curvature="0"
       style="clip-rule:evenodd;fill:#1a3369;fill-rule:evenodd" /><path
       d="m 202.689,170.383 c 0,2.955 0,5.386 -0.153,6.679 -0.124,0.893 -0.277,1.569 -0.893,1.692 -0.277,0.063 -0.647,0.123 -0.924,0.123 -0.185,0 -0.246,0.093 -0.246,0.185 0,0.186 0.154,0.247 0.493,0.247 0.923,0 2.862,-0.093 2.893,-0.093 0.154,0 2.093,0.093 3.785,0.093 0.339,0 0.492,-0.093 0.492,-0.247 0,-0.092 -0.062,-0.185 -0.246,-0.185 -0.276,0 -0.954,-0.061 -1.385,-0.123 -0.923,-0.123 -1.108,-0.8 -1.2,-1.692 -0.154,-1.293 -0.154,-3.724 -0.154,-6.679 v -0.738 c 0,-0.154 0.062,-0.246 0.216,-0.246 l 3.785,0.062 c 0.186,0 0.277,0.062 0.4,0.185 0.615,0.8 2.063,2.862 3.354,4.555 1.755,2.309 2.832,3.816 4.155,4.524 0.8,0.431 1.569,0.585 3.293,0.585 h 2.186 c 0.554,0 0.738,-0.062 0.738,-0.247 0,-0.092 -0.123,-0.185 -0.277,-0.185 -0.185,0 -0.615,0 -1.2,-0.092 -0.77,-0.123 -2.093,-0.462 -3.755,-2.216 -1.785,-1.908 -3.878,-4.647 -6.401,-7.879 2.77,-2.555 3.724,-4.832 3.724,-7.109 0,-2.124 -1.354,-3.632 -2.123,-4.186 -1.631,-1.17 -3.693,-1.354 -5.632,-1.354 -0.954,0 -3.294,0.092 -3.632,0.092 -0.154,0 -2.093,-0.092 -3.478,-0.092 -0.338,0 -0.492,0.062 -0.492,0.246 0,0.123 0.123,0.185 0.246,0.185 0.277,0 0.8,0.031 1.046,0.093 1.016,0.215 1.262,0.708 1.323,1.754 0.062,0.985 0.062,1.847 0.062,6.648 z m 2.462,-12.803 c 0,-0.185 0.093,-0.308 0.246,-0.369 0.309,-0.093 1.14,-0.185 2.063,-0.185 3.293,0 5.324,2.308 5.324,6.154 0,2.34 -0.8,4.002 -1.877,4.74 -0.708,0.492 -1.569,0.585 -2.309,0.585 -1.354,0 -2.77,-0.216 -3.231,-0.493 -0.154,-0.092 -0.216,-0.215 -0.216,-0.369 z"
       id="path16"
       inkscape:connector-curvature="0"
       style="clip-rule:evenodd;fill:#1a3369;fill-rule:evenodd" /><path
       d="m 225.896,170.383 c 0,2.955 0,5.386 -0.154,6.679 -0.123,0.893 -0.277,1.569 -0.893,1.692 -0.277,0.063 -0.646,0.123 -0.923,0.123 -0.185,0 -0.246,0.093 -0.246,0.185 0,0.186 0.153,0.247 0.492,0.247 0.923,0 2.708,-0.093 2.954,-0.093 0.246,0 2.031,0.093 3.54,0.093 0.338,0 0.492,-0.093 0.492,-0.247 0,-0.092 -0.062,-0.185 -0.246,-0.185 -0.277,0 -0.77,-0.061 -1.2,-0.123 -0.924,-0.123 -1.108,-0.8 -1.2,-1.692 -0.154,-1.293 -0.154,-3.724 -0.154,-6.679 v -3.016 h 0.154 c 1.477,1.815 8.002,8.863 9.387,10.002 1.323,1.047 2.093,1.724 3.724,1.878 0.677,0.062 1.262,0.062 2.123,0.062 h 1.57 c 0.522,0 0.677,-0.093 0.677,-0.247 0,-0.123 -0.185,-0.185 -0.4,-0.185 -0.215,0 -1.107,-0.061 -1.908,-0.399 -1.477,-0.616 -2,-1.108 -4.585,-3.509 -1.263,-1.17 -7.664,-7.786 -8.464,-8.679 0.646,-0.77 6.002,-6.002 6.771,-6.74 1.386,-1.323 2.063,-2.093 3.324,-2.646 0.615,-0.277 1.262,-0.432 1.724,-0.432 0.246,0 0.308,-0.062 0.308,-0.215 0,-0.154 -0.123,-0.216 -0.462,-0.216 -0.77,0 -2.801,0.092 -2.954,0.092 -0.738,0 -1.692,-0.092 -2.309,-0.092 -0.216,0 -0.369,0.062 -0.369,0.216 0,0.123 0.123,0.185 0.277,0.246 0.246,0.092 0.399,0.276 0.399,0.646 0,0.522 -0.8,1.323 -1.662,2.216 -1.107,1.2 -6.678,6.863 -7.201,7.447 h -0.123 v -1.846 c 0,-4.802 0,-5.663 0.062,-6.648 0.062,-1.077 0.308,-1.601 1.139,-1.754 0.369,-0.062 0.554,-0.093 0.77,-0.093 0.123,0 0.246,-0.062 0.246,-0.185 0,-0.185 -0.154,-0.246 -0.492,-0.246 -0.924,0 -2.709,0.092 -2.985,0.092 -0.185,0 -2.001,-0.092 -3.386,-0.092 -0.339,0 -0.492,0.062 -0.492,0.246 0,0.123 0.123,0.185 0.246,0.185 0.277,0 0.801,0.031 1.046,0.093 1.016,0.215 1.263,0.708 1.324,1.754 0.062,0.985 0.062,1.847 0.062,6.648 v 5.417 z"
       id="path18"
       inkscape:connector-curvature="0"
       style="clip-rule:evenodd;fill:#1a3369;fill-rule:evenodd" /><path
       d="m 252.456,173.984 c 0,0.492 0,1.784 -0.093,3.077 -0.062,0.893 -0.339,1.569 -0.954,1.692 -0.277,0.063 -0.646,0.123 -0.924,0.123 -0.185,0 -0.246,0.093 -0.246,0.185 0,0.186 0.154,0.247 0.493,0.247 0.923,0 2.861,-0.093 3.016,-0.093 0.155,0 2.093,0.093 3.785,0.093 0.339,0 0.492,-0.093 0.492,-0.247 0,-0.092 -0.061,-0.185 -0.245,-0.185 -0.277,0 -0.954,-0.061 -1.386,-0.123 -0.923,-0.123 -1.2,-0.8 -1.262,-1.692 -0.092,-1.293 -0.092,-2.585 -0.092,-3.077 v -2.647 c 0,-1.016 0,-1.97 0.461,-3.077 0.555,-1.324 4.863,-8.557 5.879,-9.787 0.677,-0.831 1.016,-1.2 1.631,-1.569 0.492,-0.309 1.077,-0.432 1.416,-0.432 0.246,0 0.4,-0.092 0.4,-0.246 0,-0.123 -0.185,-0.185 -0.4,-0.185 -0.585,0 -2.801,0.092 -2.985,0.092 -0.246,0 -1.231,-0.092 -2.031,-0.092 -0.308,0 -0.492,0.062 -0.492,0.185 0,0.154 0.185,0.216 0.461,0.308 0.369,0.093 0.493,0.432 0.493,0.862 0,0.399 -0.124,0.923 -0.523,1.569 -0.616,1.016 -4.524,7.756 -5.109,9.048 -0.554,-0.892 -5.17,-8.832 -5.663,-9.725 -0.246,-0.462 -0.399,-0.831 -0.399,-1.2 0,-0.247 0.153,-0.432 0.399,-0.555 0.277,-0.123 0.462,-0.153 0.462,-0.276 0,-0.124 -0.062,-0.216 -0.399,-0.216 -1.201,0 -2.37,0.092 -2.586,0.092 -0.153,0 -2.462,-0.092 -3.047,-0.092 -0.276,0 -0.4,0.092 -0.4,0.216 0,0.153 0.154,0.215 0.309,0.215 0.276,0 0.861,0.185 1.323,0.493 0.554,0.369 1.323,1.139 2.093,2.277 1.077,1.6 5.201,8.371 5.416,8.863 0.4,0.893 0.709,1.569 0.709,3.231 v 2.648 z"
       id="path20"
       inkscape:connector-curvature="0"
       style="clip-rule:evenodd;fill:#1a3369;fill-rule:evenodd" /><path
       d="m 279.634,159.202 c 0,-1.672 0,-1.979 0.022,-2.332 0.021,-0.385 0.11,-0.572 0.406,-0.627 0.133,-0.021 0.309,-0.033 0.43,-0.033 0.132,0 0.198,-0.021 0.198,-0.099 0,-0.078 -0.077,-0.099 -0.231,-0.099 -0.429,0 -1.231,0.032 -1.496,0.032 -0.297,0 -0.99,-0.032 -1.507,-0.032 -0.165,0 -0.242,0.021 -0.242,0.099 0,0.078 0.066,0.099 0.188,0.099 0.143,0 0.274,0.012 0.362,0.033 0.363,0.077 0.451,0.253 0.474,0.627 0.021,0.353 0.021,0.66 0.021,2.332 v 1.937 c 0,1.012 0,1.881 -0.055,2.343 -0.044,0.319 -0.099,0.561 -0.319,0.605 -0.099,0.021 -0.23,0.044 -0.396,0.044 -0.132,0 -0.176,0.032 -0.176,0.088 0,0.076 0.077,0.109 0.22,0.109 0.22,0 0.506,-0.021 0.759,-0.021 0.264,-0.012 0.506,-0.012 0.627,-0.012 0.451,0 0.848,0.012 1.342,0.033 0.495,0.011 1.067,0.033 1.859,0.033 0.572,0 0.627,-0.055 0.693,-0.297 0.088,-0.319 0.165,-1.145 0.165,-1.266 0,-0.131 -0.012,-0.187 -0.088,-0.187 -0.089,0 -0.11,0.066 -0.121,0.165 -0.022,0.209 -0.154,0.518 -0.286,0.66 -0.275,0.297 -0.704,0.308 -1.287,0.308 -0.858,0 -1.144,-0.077 -1.331,-0.241 -0.231,-0.198 -0.231,-0.957 -0.231,-2.365 z"
       id="path22"
       inkscape:connector-curvature="0"
       style="clip-rule:evenodd;fill:#1a3369;fill-rule:evenodd" /><path
       d="m 296.537,161.523 c 0.055,0 0.088,0.022 0.11,0.077 l 0.88,2.266 c 0.055,0.132 -0.022,0.231 -0.1,0.253 -0.109,0.012 -0.153,0.033 -0.153,0.1 0,0.076 0.132,0.076 0.33,0.088 0.88,0.021 1.683,0.021 2.079,0.021 0.406,0 0.506,-0.021 0.506,-0.109 0,-0.077 -0.055,-0.088 -0.144,-0.088 -0.132,0 -0.297,-0.012 -0.462,-0.044 -0.23,-0.056 -0.55,-0.21 -0.968,-1.199 -0.704,-1.673 -2.464,-6.072 -2.728,-6.678 -0.11,-0.253 -0.177,-0.352 -0.275,-0.352 -0.11,0 -0.176,0.121 -0.309,0.439 l -2.761,6.82 c -0.22,0.55 -0.429,0.924 -0.935,0.99 -0.088,0.011 -0.242,0.022 -0.341,0.022 -0.089,0 -0.133,0.021 -0.133,0.088 0,0.088 0.066,0.109 0.209,0.109 0.572,0 1.178,-0.033 1.299,-0.033 0.341,0 0.813,0.033 1.165,0.033 0.121,0 0.188,-0.021 0.188,-0.109 0,-0.066 -0.033,-0.088 -0.165,-0.088 h -0.165 c -0.341,0 -0.439,-0.144 -0.439,-0.342 0,-0.132 0.055,-0.396 0.165,-0.671 l 0.594,-1.507 c 0.021,-0.065 0.044,-0.088 0.099,-0.088 h 2.454 z m -2.232,-0.549 c -0.045,0 -0.056,-0.033 -0.045,-0.077 l 1.013,-2.695 c 0.011,-0.044 0.032,-0.099 0.065,-0.099 0.033,0 0.044,0.055 0.056,0.099 l 0.989,2.706 c 0.012,0.033 0,0.066 -0.055,0.066 z"
       id="path24"
       inkscape:connector-curvature="0"
       style="clip-rule:evenodd;fill:#1a3369;fill-rule:evenodd" /><path
       d="m 310.712,164.075 c 0.1,0.286 0.144,0.407 0.253,0.407 0.133,0 0.188,-0.132 0.396,-0.583 0.473,-1.012 1.936,-4.917 2.145,-5.478 h 0.022 l 2.288,5.521 c 0.165,0.407 0.23,0.539 0.341,0.539 0.144,0 0.198,-0.132 0.319,-0.517 0.539,-1.65 1.693,-5.148 2.2,-6.534 0.23,-0.627 0.352,-1.067 0.615,-1.166 0.121,-0.044 0.275,-0.056 0.385,-0.056 0.1,0 0.154,-0.032 0.154,-0.109 0,-0.066 -0.077,-0.088 -0.198,-0.088 -0.362,0 -0.836,0.032 -0.913,0.032 -0.099,0 -0.561,-0.032 -1.144,-0.032 -0.165,0 -0.253,0.021 -0.253,0.099 0,0.066 0.077,0.099 0.187,0.099 0.43,0 0.528,0.154 0.528,0.33 0,0.154 -0.033,0.386 -0.11,0.639 -0.385,1.287 -1.265,4.19 -1.463,4.928 h -0.033 l -2.287,-5.544 c -0.144,-0.353 -0.198,-0.518 -0.319,-0.518 -0.088,0 -0.165,0.088 -0.275,0.396 l -2.134,5.742 h -0.033 c -0.197,-0.616 -1.221,-3.949 -1.408,-4.675 -0.132,-0.495 -0.241,-0.869 -0.241,-1.013 0,-0.121 0.021,-0.198 0.12,-0.242 0.077,-0.044 0.188,-0.044 0.275,-0.044 0.11,0 0.198,-0.011 0.198,-0.099 0,-0.066 -0.077,-0.099 -0.231,-0.099 -0.638,0 -1.122,0.032 -1.221,0.032 -0.099,0 -0.704,-0.032 -1.276,-0.032 -0.153,0 -0.241,0.021 -0.241,0.099 0,0.088 0.065,0.099 0.176,0.099 0.099,0 0.319,0.022 0.44,0.1 0.153,0.109 0.274,0.374 0.406,0.78 z"
       id="path26"
       inkscape:connector-curvature="0"
       style="clip-rule:evenodd;fill:#1a3369;fill-rule:evenodd" /><path
       d="m 284.937,177.635 c 0,-0.55 0,-0.99 0.011,-1.32 0.011,-0.385 0.121,-0.572 0.418,-0.627 0.132,-0.022 0.209,-0.033 0.297,-0.033 0.077,0 0.143,-0.021 0.143,-0.088 0,-0.088 -0.076,-0.11 -0.22,-0.11 -0.363,0 -0.945,0.033 -1.287,0.033 -0.33,0 -1.022,-0.033 -1.595,-0.033 -0.154,0 -0.23,0.022 -0.23,0.11 0,0.066 0.065,0.088 0.164,0.088 0.154,0 0.342,0.011 0.43,0.033 0.363,0.077 0.462,0.253 0.473,0.627 0.011,0.33 0.011,0.748 0.011,1.298 v 1.034 c 0,0.188 -0.044,0.33 -0.209,0.407 -0.264,0.121 -0.648,0.121 -0.935,0.121 -2.321,0 -3.828,-1.771 -3.828,-4.136 0,-1.354 0.396,-2.179 1.012,-2.695 0.771,-0.639 1.573,-0.683 2.179,-0.683 1.242,0 2.123,0.507 2.452,0.858 0.286,0.309 0.342,0.66 0.374,0.913 0.012,0.088 0.033,0.143 0.11,0.143 0.088,0 0.121,-0.055 0.121,-0.23 0,-1.375 0.077,-1.684 0.077,-1.805 0,-0.076 -0.022,-0.121 -0.154,-0.131 -0.253,-0.012 -0.638,-0.077 -0.869,-0.122 -0.22,-0.044 -1.188,-0.176 -1.947,-0.176 -0.924,0 -1.902,0.077 -2.958,0.715 -1.002,0.605 -1.915,1.838 -1.915,3.598 0,3.036 2.388,4.312 5.083,4.312 0.857,0 1.936,-0.121 2.65,-0.495 0.133,-0.076 0.144,-0.099 0.144,-0.396 v -1.21 z"
       id="path28"
       inkscape:connector-curvature="0"
       style="clip-rule:evenodd;fill:#1a3369;fill-rule:evenodd" /><path
       d="m 296.515,176.392 c 0,1.012 0,1.881 -0.055,2.343 -0.044,0.319 -0.099,0.562 -0.319,0.605 -0.099,0.021 -0.23,0.044 -0.396,0.044 -0.132,0 -0.176,0.032 -0.176,0.088 0,0.077 0.077,0.109 0.22,0.109 0.439,0 1.133,-0.032 1.342,-0.032 0.165,0 0.979,0.032 1.617,0.032 0.143,0 0.22,-0.032 0.22,-0.109 0,-0.056 -0.044,-0.088 -0.132,-0.088 -0.132,0 -0.374,-0.022 -0.539,-0.044 -0.33,-0.044 -0.396,-0.286 -0.429,-0.605 -0.056,-0.462 -0.056,-1.331 -0.056,-2.354 v -0.154 c 0,-0.065 0.033,-0.088 0.089,-0.088 l 0.957,0.022 c 0.077,0 0.143,0.011 0.197,0.076 0.144,0.165 0.649,0.913 1.09,1.519 0.615,0.847 1.033,1.364 1.507,1.617 0.286,0.153 0.561,0.208 1.177,0.208 h 1.045 c 0.132,0 0.209,-0.021 0.209,-0.109 0,-0.056 -0.044,-0.088 -0.132,-0.088 -0.088,0 -0.188,-0.011 -0.309,-0.033 -0.165,-0.033 -0.615,-0.11 -1.231,-0.748 -0.649,-0.682 -1.408,-1.661 -2.387,-2.893 1.11,-0.902 1.452,-1.65 1.452,-2.465 0,-0.736 -0.44,-1.298 -0.748,-1.507 -0.595,-0.406 -1.331,-0.473 -2.024,-0.473 -0.341,0 -1.177,0.033 -1.551,0.033 -0.231,0 -0.925,-0.033 -1.507,-0.033 -0.166,0 -0.242,0.021 -0.242,0.099 0,0.078 0.065,0.1 0.187,0.1 0.154,0 0.341,0.011 0.43,0.032 0.362,0.077 0.45,0.254 0.473,0.628 0.021,0.352 0.021,0.659 0.021,2.332 z m 1.298,-4.412 c 0,-0.088 0.022,-0.132 0.1,-0.154 0.11,-0.032 0.308,-0.044 0.583,-0.044 0.649,0 1.683,0.451 1.683,2.013 0,0.902 -0.318,1.409 -0.648,1.65 -0.198,0.144 -0.341,0.188 -0.781,0.188 -0.274,0 -0.605,-0.033 -0.836,-0.11 -0.077,-0.033 -0.1,-0.077 -0.1,-0.198 v -3.345 z"
       id="path30"
       inkscape:connector-curvature="0"
       style="clip-rule:evenodd;fill:#1a3369;fill-rule:evenodd" /><path
       d="m 316.509,179.735 c 2.794,0 4.555,-1.99 4.555,-4.51 0,-2.519 -1.705,-4.114 -4.444,-4.114 -3.301,0 -4.543,2.432 -4.543,4.313 -10e-4,1.946 1.275,4.311 4.432,4.311 z m 0.462,-0.549 c -2.111,0 -3.377,-1.815 -3.377,-4.103 0,-2.739 1.441,-3.443 2.706,-3.443 1.804,0 3.224,1.529 3.224,3.993 -10e-4,3.179 -1.783,3.553 -2.553,3.553 z"
       id="path32"
       inkscape:connector-curvature="0"
       style="clip-rule:evenodd;fill:#1a3369;fill-rule:evenodd" /><path
       d="m 331.509,176.062 c 0,1.595 0.418,2.409 0.979,2.915 0.803,0.726 1.858,0.759 2.441,0.759 0.715,0 1.507,-0.121 2.288,-0.792 0.925,-0.792 1.045,-2.09 1.045,-3.311 v -1.177 c 0,-1.673 0,-1.98 0.022,-2.332 0.021,-0.386 0.109,-0.572 0.407,-0.628 0.132,-0.021 0.197,-0.032 0.318,-0.032 0.132,0 0.198,-0.022 0.198,-0.1 0,-0.078 -0.077,-0.099 -0.231,-0.099 -0.429,0 -1.121,0.033 -1.254,0.033 -0.011,0 -0.704,-0.033 -1.265,-0.033 -0.154,0 -0.231,0.021 -0.231,0.099 0,0.078 0.066,0.1 0.188,0.1 0.122,0 0.308,0.011 0.396,0.032 0.363,0.077 0.451,0.254 0.474,0.628 0.021,0.352 0.021,0.659 0.021,2.332 v 1.375 c 0,1.133 -0.032,2.122 -0.638,2.728 -0.44,0.44 -1.034,0.594 -1.519,0.594 -0.374,0 -0.88,-0.044 -1.374,-0.451 -0.539,-0.439 -0.858,-1.11 -0.858,-2.705 v -1.54 c 0,-1.673 0,-1.98 0.021,-2.332 0.022,-0.386 0.11,-0.572 0.407,-0.628 0.132,-0.021 0.198,-0.032 0.319,-0.032 0.11,0 0.176,-0.022 0.176,-0.1 0,-0.078 -0.077,-0.099 -0.242,-0.099 -0.396,0 -1.089,0.033 -1.353,0.033 -0.33,0 -1.023,-0.033 -1.606,-0.033 -0.165,0 -0.242,0.021 -0.242,0.099 0,0.078 0.066,0.1 0.188,0.1 0.154,0 0.341,0.011 0.429,0.032 0.363,0.077 0.451,0.254 0.474,0.628 0.021,0.352 0.021,0.659 0.021,2.332 v 1.605 z"
       id="path34"
       inkscape:connector-curvature="0"
       style="clip-rule:evenodd;fill:#1a3369;fill-rule:evenodd" /><path
       d="m 349.864,176.392 c 0,1.012 0,1.881 -0.056,2.343 -0.044,0.319 -0.099,0.562 -0.318,0.605 -0.1,0.021 -0.231,0.044 -0.396,0.044 -0.132,0 -0.176,0.032 -0.176,0.088 0,0.077 0.077,0.109 0.22,0.109 0.44,0 1.134,-0.032 1.387,-0.032 0.285,0 0.979,0.032 1.704,0.032 0.121,0 0.209,-0.032 0.209,-0.109 0,-0.056 -0.055,-0.088 -0.176,-0.088 -0.165,0 -0.406,-0.022 -0.561,-0.044 -0.33,-0.044 -0.396,-0.286 -0.43,-0.594 -0.055,-0.474 -0.055,-1.343 -0.055,-2.354 v -4.4 c 0,-0.121 0.033,-0.187 0.088,-0.209 0.1,-0.032 0.265,-0.044 0.43,-0.044 0.253,0 0.703,0.066 1.1,0.43 0.616,0.55 0.648,1.286 0.648,1.649 0,1.122 -0.857,1.815 -1.474,1.815 -0.23,0 -0.308,0.032 -0.308,0.121 0,0.077 0.077,0.088 0.132,0.099 0.055,0.011 0.176,0.011 0.23,0.011 1.563,0 2.707,-1.1 2.707,-2.662 0,-0.583 -0.309,-1.077 -0.551,-1.309 -0.176,-0.165 -0.671,-0.627 -2.046,-0.627 -0.506,0 -1.144,0.033 -1.595,0.033 -0.308,0 -1.001,-0.033 -1.584,-0.033 -0.165,0 -0.242,0.021 -0.242,0.099 0,0.078 0.066,0.1 0.187,0.1 0.154,0 0.342,0.011 0.43,0.032 0.363,0.077 0.451,0.254 0.473,0.628 0.022,0.352 0.022,0.659 0.022,2.332 v 1.935 z"
       id="path36"
       inkscape:connector-curvature="0"
       style="clip-rule:evenodd;fill:#1a3369;fill-rule:evenodd" /><g
       id="g58"><path
         d="m 111.529,179.739 c 1.97,0 4.309,-0.216 5.54,-0.708 0.554,-0.246 0.616,-0.308 0.8,-0.893 0.308,-1.047 0.677,-3.724 0.677,-3.939 0,-0.246 -0.062,-0.462 -0.215,-0.462 -0.185,0 -0.246,0.123 -0.308,0.462 -0.093,0.554 -0.493,1.908 -1.139,2.585 -1.231,1.262 -3.047,1.539 -5.355,1.539 -6.586,0 -11.11,-5.386 -11.11,-11.264 0,-3.14 0.523,-5.879 2.77,-8.033 1.077,-1.046 2.985,-2.247 7.079,-2.247 2.708,0 5.078,0.831 6.155,1.755 0.8,0.677 1.292,1.938 1.292,3.139 0,0.431 0.031,0.646 0.247,0.646 0.185,0 0.246,-0.185 0.277,-0.646 0.031,-0.461 0.031,-2.154 0.092,-3.17 0.062,-1.107 0.154,-1.477 0.154,-1.724 0,-0.185 -0.062,-0.308 -0.4,-0.338 -0.985,-0.062 -1.97,-0.246 -3.139,-0.462 -1.508,-0.277 -3.231,-0.369 -4.462,-0.369 -4.74,0 -7.541,1.446 -9.387,3.293 -2.739,2.739 -3.447,6.34 -3.447,8.402 0,2.924 0.738,6.432 3.724,9.109 2.431,2.187 5.539,3.325 10.155,3.325 z"
         id="path38"
         inkscape:connector-curvature="0"
         style="clip-rule:evenodd;fill:#1a3369;fill-rule:evenodd" /><path
         d="m 123.378,175.923 c -0.554,1.539 -1.169,2.708 -2.585,2.894 -0.246,0.03 -0.677,0.061 -0.892,0.061 -0.154,0 -0.277,0.062 -0.277,0.185 0,0.186 0.184,0.247 0.584,0.247 1.446,0 3.139,-0.093 3.478,-0.093 0.339,0 1.662,0.093 2.401,0.093 0.277,0 0.461,-0.062 0.461,-0.247 0,-0.123 -0.092,-0.185 -0.308,-0.185 h -0.308 c -0.523,0 -1.17,-0.276 -1.17,-0.893 0,-0.554 0.154,-1.292 0.431,-2.062 l 1.847,-5.447 c 0.062,-0.154 0.154,-0.246 0.308,-0.246 h 6.617 c 0.153,0 0.215,0.062 0.277,0.185 l 2.862,7.57 c 0.184,0.493 0,0.77 -0.185,0.832 -0.124,0.03 -0.216,0.092 -0.216,0.215 0,0.185 0.338,0.185 0.923,0.216 2.124,0.062 4.37,0.062 4.832,0.062 0.338,0 0.615,-0.062 0.615,-0.247 0,-0.153 -0.123,-0.185 -0.308,-0.185 -0.308,0 -0.77,-0.03 -1.231,-0.185 -0.646,-0.185 -1.539,-0.677 -2.647,-3.416 -1.877,-4.678 -6.709,-17.389 -7.171,-18.559 -0.369,-0.954 -0.492,-1.107 -0.677,-1.107 -0.184,0 -0.308,0.185 -0.677,1.2 z m 4.309,-6.802 c -0.092,0 -0.154,-0.062 -0.092,-0.216 l 2.708,-8.31 c 0.154,-0.461 0.308,-0.461 0.461,0 l 2.924,8.31 c 0.031,0.123 0.031,0.216 -0.123,0.216 z"
         id="path40"
         inkscape:connector-curvature="0"
         style="clip-rule:evenodd;fill:#1a3369;fill-rule:evenodd" /><path
         d="m 147.477,170.383 c 0,2.955 0,5.386 -0.154,6.679 -0.123,0.893 -0.277,1.569 -0.892,1.692 -0.277,0.063 -0.646,0.123 -0.923,0.123 -0.185,0 -0.246,0.093 -0.246,0.185 0,0.186 0.154,0.247 0.492,0.247 0.923,0 2.862,-0.093 3.016,-0.093 0.154,0 2.093,0.093 3.786,0.093 0.338,0 0.492,-0.093 0.492,-0.247 0,-0.092 -0.062,-0.185 -0.246,-0.185 -0.277,0 -0.954,-0.061 -1.385,-0.123 -0.923,-0.123 -1.107,-0.8 -1.2,-1.692 -0.154,-1.293 -0.154,-3.724 -0.154,-6.679 v -2.616 c 0,-0.215 0.062,-0.276 0.216,-0.276 0.523,0 3.877,0 4.647,0.092 0.954,0.123 1.447,0.678 1.6,1.108 0.124,0.369 0.154,0.8 0.185,1.107 0,0.154 0.062,0.277 0.215,0.277 0.215,0 0.215,-0.308 0.215,-0.585 0,-0.215 0.062,-1.446 0.123,-2.062 0.092,-1.016 0.247,-1.539 0.247,-1.724 0,-0.154 -0.031,-0.246 -0.154,-0.246 -0.123,0 -0.215,0.153 -0.338,0.308 -0.277,0.4 -0.677,0.492 -1.416,0.554 -0.431,0.031 -0.862,0.031 -1.385,0.031 l -3.939,0.03 c -0.185,0 -0.216,-0.092 -0.216,-0.276 v -8.495 c 0,-0.246 0.092,-0.338 0.277,-0.338 l 4.74,0.092 c 1.2,0.031 1.908,0.585 2.092,0.985 0.185,0.399 0.277,0.923 0.277,1.169 0,0.216 0.062,0.369 0.215,0.369 0.153,0 0.215,-0.185 0.246,-0.338 0.062,-0.369 0.123,-1.724 0.154,-2.031 0.093,-0.862 0.247,-1.231 0.247,-1.446 0,-0.154 -0.062,-0.277 -0.185,-0.277 -0.123,0 -0.246,0.123 -0.431,0.185 -0.277,0.093 -0.77,0.093 -1.354,0.123 -0.708,0.03 -6.955,0 -7.571,0 l -1.262,-0.03 c -0.677,-0.031 -1.508,-0.031 -2.216,-0.031 -0.338,0 -0.492,0.062 -0.492,0.246 0,0.123 0.123,0.185 0.247,0.185 0.277,0 0.8,0.031 1.046,0.093 1.016,0.215 1.262,0.708 1.324,1.754 0.062,0.985 0.062,1.847 0.062,6.648 v 5.415 z"
         id="path42"
         inkscape:connector-curvature="0"
         style="clip-rule:evenodd;fill:#1a3369;fill-rule:evenodd" /><path
         d="m 92.419,157.787 c 0.225,1.751 0.476,3.594 0.727,5.439 2.115,15.537 4.27,31.376 -3.225,39.543 0.042,1.438 -0.061,2.859 -0.162,4.279 l -0.001,0.014 -0.149,4.168 c 3.028,2.192 4.548,4.448 5.122,6.754 0.583,2.344 0.184,4.714 -0.602,7.11 l -0.684,-0.222 c 0.75,-2.284 1.133,-4.53 0.589,-6.717 -0.531,-2.133 -1.953,-4.236 -4.79,-6.304 -2.837,2.068 -4.259,4.171 -4.79,6.304 -0.544,2.187 -0.161,4.433 0.589,6.717 l -0.684,0.222 c -0.787,-2.396 -1.186,-4.767 -0.603,-7.11 0.574,-2.306 2.094,-4.562 5.123,-6.754 -0.038,-1.422 0.062,-2.827 0.163,-4.231 l 0.001,-0.013 0.15,-4.218 c -7.876,-8.578 -4.5,-25.642 -2.375,-41.916 0.139,-1.067 0.277,-2.125 0.398,-3.065 l 0.712,0.091 c -0.141,1.094 -0.27,2.084 -0.398,3.068 -2.089,15.996 -5.427,32.763 2.027,41.157 7.069,-7.976 4.954,-23.525 2.877,-38.781 -0.245,-1.798 -0.489,-3.594 -0.727,-5.444 z"
         id="path44"
         inkscape:connector-curvature="0"
         style="clip-rule:evenodd;fill:#e6ecf7;fill-rule:evenodd" /><path
         d="m 91.991,106.476 c 0.166,-1.289 0.35,-2.646 0.535,-4.006 1.558,-11.443 3.145,-23.108 -2.375,-29.123 0.031,-1.059 -0.044,-2.105 -0.119,-3.152 v -0.01 l -0.11,-3.07 c 2.23,-1.614 3.35,-3.276 3.772,-4.974 0.43,-1.726 0.136,-3.471 -0.443,-5.236 l -0.503,0.164 c 0.551,1.682 0.834,3.335 0.434,4.946 -0.392,1.571 -1.438,3.12 -3.528,4.643 -2.089,-1.523 -3.137,-3.072 -3.528,-4.643 -0.401,-1.611 -0.118,-3.264 0.434,-4.946 l -0.503,-0.164 c -0.579,1.765 -0.873,3.511 -0.444,5.236 0.423,1.698 1.542,3.36 3.773,4.975 -0.028,1.047 0.046,2.082 0.12,3.116 v 0.009 l 0.111,3.106 c -5.8,6.318 -3.314,18.885 -1.749,30.871 0.103,0.787 0.205,1.565 0.293,2.258 l 0.524,-0.067 c -0.103,-0.805 -0.199,-1.535 -0.293,-2.259 -1.539,-11.781 -3.997,-24.13 1.493,-30.312 5.207,5.874 3.649,17.326 2.119,28.562 -0.18,1.324 -0.36,2.646 -0.535,4.009 z"
         id="path46"
         inkscape:connector-curvature="0"
         style="clip-rule:evenodd;fill:#e6ecf7;fill-rule:evenodd" /><path
         d="m 111.079,137.277 2.32,2.625 h 7.626 l 2.625,-2.625 z m 1.891,3.223 -2.957,-3.346 -0.528,-0.598 h 0.797 14.237 0.869 l -0.614,0.615 -3.346,3.345 -0.105,0.105 h -0.149 -7.936 -0.161 z"
         id="path48"
         inkscape:connector-curvature="0"
         style="clip-rule:evenodd;fill:#dce6f5;fill-rule:evenodd" /><path
         d="m 52.714,140.5 -2.956,-3.346 -0.528,-0.598 h 0.796 14.237 0.869 l -0.615,0.615 -3.345,3.345 -0.105,0.105 h -0.149 -7.936 -0.161 z m -1.891,-3.223 2.32,2.625 h 7.626 l 2.625,-2.625 z"
         id="path50"
         inkscape:connector-curvature="0"
         style="clip-rule:evenodd;fill:#dce6f5;fill-rule:evenodd" /><polygon
         points="57.087,127.486 55.315,134.9 54.618,134.734 56.719,125.942 57.415,125.933 59.675,134.37 58.981,134.556 "
         id="polygon52"
         style="clip-rule:evenodd;fill:#dce6f5;fill-rule:evenodd" /><polygon
         points="117.055,127.486 115.283,134.9 114.586,134.734 116.687,125.942 117.382,125.933 119.643,134.37 118.949,134.556 "
         id="polygon54"
         style="clip-rule:evenodd;fill:#dce6f5;fill-rule:evenodd" /><path
         d="m 59.096,123.663 c -0.583,-0.672 -1.166,-1.345 -1.748,-2.018 2.45,-2.29 6.404,-1.678 11.365,0.875 5.67,1.838 9.353,0.409 12.508,-1.883 3.082,-1.02 3.568,0.557 4.103,2.084 0.134,7.734 0.269,15.468 0.403,23.201 -1.502,1.233 -3.004,2.466 -4.506,3.699 0.247,0.717 0.494,1.435 0.74,2.151 3.497,-0.089 6.994,-0.179 10.491,-0.269 -0.067,-0.941 -0.135,-1.883 -0.202,-2.824 -1.076,-0.74 -2.152,-1.479 -3.228,-2.22 0.224,-8.137 0.448,-16.274 0.672,-24.412 1.55,-1.134 3.715,-0.732 5.985,-0.067 4.106,1.711 6.98,0.958 9.819,0.134 3.197,-1.888 6.51,-2.505 9.886,-2.421 0.91,-0.012 1.675,0.139 1.144,1.749 -0.381,0.358 -0.763,0.717 -1.144,1.076 1.38,2.092 2.7,2.458 3.9,-0.471 -0.58,-4.283 -4.109,-4.306 -7.936,-3.9 -6.177,2.15 -12.294,2.379 -18.292,-1.211 -1.323,-0.179 -2.645,-0.358 -3.968,-0.538 -1.114,-2.524 -2.36,-3.057 -3.833,-0.201 -1.412,0.202 -2.825,0.403 -4.237,0.605 -3.863,3.603 -7.793,4.916 -11.836,2.421 -3.744,-0.403 -7.487,-0.807 -11.231,-1.21 -1.798,0.382 -2.932,1.187 -2.757,2.825 0.134,0.964 0.269,1.928 0.403,2.892 1.074,1.748 2.247,1.593 3.499,-0.067 z m 28.185,8.456 v 0 c 0.305,0 0.553,0.249 0.553,0.553 v 13.33 c 0,0.305 -0.249,0.553 -0.553,0.553 v 0 c -0.304,0 -0.552,-0.248 -0.552,-0.553 v -13.33 c 0,-0.305 0.248,-0.553 0.552,-0.553 z m 0,-11.525 v 0 c 0.305,0 0.553,0.249 0.553,0.553 v 5.414 c 0,0.304 -0.249,0.553 -0.553,0.553 v 0 c -0.304,0 -0.552,-0.249 -0.552,-0.553 v -5.414 c 0,-0.305 0.248,-0.553 0.552,-0.553 z m 0,-5.105 v 0 c 0.379,0 0.688,0.31 0.688,0.687 v 1.569 c 0,0.377 -0.31,0.687 -0.687,0.687 v 0 c -0.377,0 -0.687,-0.309 -0.687,-0.687 v -1.569 c -0.001,-0.378 0.308,-0.687 0.686,-0.687 z"
         id="path56"
         inkscape:connector-curvature="0"
         style="clip-rule:evenodd;fill:#dce6f5;fill-rule:evenodd" /></g></g></svg>